<?xml version="1.0" encoding="UTF-8" standalone="no"?>
<!-- Uploaded to: SVG Repo, www.svgrepo.com, Generator: SVG Repo Mixer Tools -->

<svg
   width="800px"
   height="800px"
   viewBox="0 0 24 24"
   fill="none"
   version="1.1"
   id="svg27421"
   sodipodi:docname="speaker-xmark-svgrepo-com.svg"
   inkscape:version="1.2.2 (b0a8486541, 2022-12-01)"
   xmlns:inkscape="http://www.inkscape.org/namespaces/inkscape"
   xmlns:sodipodi="http://sodipodi.sourceforge.net/DTD/sodipodi-0.dtd"
   xmlns="http://www.w3.org/2000/svg"
   xmlns:svg="http://www.w3.org/2000/svg">
  <defs
     id="defs27425" />
  <sodipodi:namedview
     id="namedview27423"
     pagecolor="#ffffff"
     bordercolor="#000000"
     borderopacity="0.25"
     inkscape:showpageshadow="2"
     inkscape:pageopacity="0.0"
     inkscape:pagecheckerboard="0"
     inkscape:deskcolor="#d1d1d1"
     showgrid="false"
     inkscape:zoom="0.88625"
     inkscape:cx="400"
     inkscape:cy="400"
     inkscape:window-width="1702"
     inkscape:window-height="918"
     inkscape:window-x="0"
     inkscape:window-y="0"
     inkscape:window-maximized="1"
     inkscape:current-layer="svg27421" />
  <path
     d="M12.1657 2.14424C12.8728 2.50021 13 3.27314 13 3.7446V20.2561C13 20.7286 12.8717 21.4998 12.1656 21.8554C11.416 22.2331 10.7175 21.8081 10.3623 21.4891L4.95001 16.6248H3.00001C1.89544 16.6248 1.00001 15.7293 1.00001 14.6248L1 9.43717C1 8.3326 1.89543 7.43717 3 7.43717H4.94661L10.3623 2.51158C10.7163 2.19354 11.4151 1.76635 12.1657 2.14424Z"
     fill="#000000"
     id="path27417"
     style="fill:#c4a7e7;fill-opacity:1" />
  <path
     d="M21.8232 15.6767C21.4327 16.0673 20.7995 16.0673 20.409 15.6768L18.5 13.7678L16.591 15.6768C16.2005 16.0673 15.5673 16.0673 15.1768 15.6767L14.8233 15.3232C14.4327 14.9327 14.4327 14.2995 14.8233 13.909L16.7322 12L14.8232 10.091C14.4327 9.70044 14.4327 9.06727 14.8232 8.67675L15.1767 8.3232C15.5673 7.93267 16.2004 7.93267 16.591 8.32319L18.5 10.2322L20.409 8.32319C20.7996 7.93267 21.4327 7.93267 21.8233 8.3232L22.1768 8.67675C22.5673 9.06727 22.5673 9.70044 22.1768 10.091L20.2678 12L22.1767 13.909C22.5673 14.2995 22.5673 14.9327 22.1767 15.3232L21.8232 15.6767Z"
     fill="#000000"
     id="path27419"
     style="fill:#c4a7e7;fill-opacity:1" />
</svg>
